#Comment line ignore any data following # character 
#Hierarchical Translation and Rotation (.htr) file 
[Header]	
#Header keywords are followed by a single value 
FileType HTR		#Single word string
DataType HTRS		#Translation followed by rotation and scale data
FileVersion 1		#integer
NumSegments 64		#integer
NumFrames 3		#integer
DataFrameRate 30		#integer, data frame rate in this file
EulerRotationOrder ZYX
CalibrationUnits mm
RotationUnits Degrees
GlobalAxisofGravity Y
BoneLengthAxis Y
ScaleFactor 1.00
[SegmentNames&Hierarchy]
#CHILD	PARENT
Pinger_Root GLOBAL
Pelvis Pinger_Root
L_Hip Pelvis
R_Hip Pelvis
Rear_Leg01 Pelvis
Spine1 Pelvis
L_Leg01 L_Hip
L_Leg02 L_Leg01
L_Leg03 L_Leg02
L_Foot L_Leg03
L_Toe1_01 L_Foot
L_Toe2_01 L_Foot
L_Toe3_01 L_Foot
planeAlignerLeft L_Foot
L_Toe1_02 L_Toe1_01
L_Toe1_03 L_Toe1_02
L_Toe2_02 L_Toe2_01
L_Toe2_03 L_Toe2_02
L_Toe3_02 L_Toe3_01
L_Toe3_03 L_Toe3_02
planeLockWeightLeft planeAlignerLeft
R_Leg01 R_Hip
R_Leg02 R_Leg01
R_Leg03 R_Leg02
R_Foot R_Leg03
planeAlignerRight R_Foot
R_Toe1_01 R_Foot
R_Toe2_01 R_Foot
R_Toe3_01 R_Foot
planeLockWeightRight planeAlignerRight
R_Toe1_02 R_Toe1_01
R_Toe1_03 R_Toe1_02
R_Toe2_02 R_Toe2_01
R_Toe2_03 R_Toe2_02
R_Toe3_02 R_Toe3_01
R_Toe3_03 R_Toe3_02
Rear_Leg02 Rear_Leg01
Rear_Leg03 Rear_Leg02
Rear_Leg04 Rear_Leg03
Rear_Foot Rear_Leg04
planeAlignerCenter Rear_Foot
Rear_Toe1_01 Rear_Foot
Rear_Toe2_01 Rear_Foot
Rear_Toe3_01 Rear_Foot
planeLockWeightCenter planeAlignerCenter
Rear_Toe1_02 Rear_Toe1_01
Rear_Toe1_03 Rear_Toe1_02
Rear_Toe2_02 Rear_Toe2_01
Rear_Toe2_03 Rear_Toe2_02
Rear_Toe3_02 Rear_Toe3_01
Rear_Toe3_03 Rear_Toe3_02
Back_Bone Spine1
Head Spine1
Motor_Bone Back_Bone
Ping_Mechanism Back_Bone
BN_LookIK Head
bottomMouth Head
L_Mouth01 Head
L_mouthFront Head
mouthGun Head
R_Mouth01 Head
R_mouthFront Head
TopMouth Head
weapon_bone Head
[BasePosition]
#SegmentName Tx, Ty, Tz, Rx, Ry, Rz, BoneLength
Pinger_Root 0.000000 0.000000 0.000000 -90.000000 0.000000 0.000000 10.000000 
Pelvis 0.000000 0.000000 0.000000 0.000000 0.000000 0.000000 10.000000 
L_Hip 0.000000 0.000000 0.000000 0.000000 0.000000 0.000000 10.000000 
R_Hip 0.000000 0.000000 0.000000 0.000000 0.000000 0.000000 10.000000 
Rear_Leg01 0.000000 0.000000 0.000000 0.000000 0.000000 0.000000 10.000000 
Spine1 0.000000 0.000000 0.000000 0.000000 0.000000 0.000000 10.000000 
L_Leg01 0.000000 0.000000 0.000000 0.000000 0.000000 0.000000 10.000000 
L_Leg02 0.000000 0.000000 0.000000 0.000000 0.000000 0.000000 10.000000 
L_Leg03 0.000000 0.000000 0.000000 0.000000 0.000000 0.000000 10.000000 
L_Foot 0.000000 0.000000 0.000000 0.000000 0.000000 0.000000 10.000000 
L_Toe1_01 0.000000 0.000000 0.000000 0.000000 0.000000 0.000000 10.000000 
L_Toe2_01 0.000000 0.000000 0.000000 0.000000 0.000000 0.000000 10.000000 
L_Toe3_01 0.000000 0.000000 0.000000 0.000000 0.000000 0.000000 10.000000 
planeAlignerLeft 0.000000 0.000000 0.000000 0.000000 0.000000 0.000000 10.000000 
L_Toe1_02 0.000000 0.000000 0.000000 0.000000 0.000000 0.000000 10.000000 
L_Toe1_03 0.000000 0.000000 0.000000 0.000000 0.000000 0.000000 10.000000 
L_Toe2_02 0.000000 0.000000 0.000000 0.000000 0.000000 0.000000 10.000000 
L_Toe2_03 0.000000 0.000000 0.000000 0.000000 0.000000 0.000000 10.000000 
L_Toe3_02 0.000000 0.000000 0.000000 0.000000 0.000000 0.000000 10.000000 
L_Toe3_03 0.000000 0.000000 0.000000 0.000000 0.000000 0.000000 10.000000 
planeLockWeightLeft 0.000000 0.000000 0.000000 0.000000 0.000000 0.000000 10.000000 
R_Leg01 0.000000 0.000000 0.000000 0.000000 0.000000 0.000000 10.000000 
R_Leg02 0.000000 0.000000 0.000000 0.000000 0.000000 0.000000 10.000000 
R_Leg03 0.000000 0.000000 0.000000 0.000000 0.000000 0.000000 10.000000 
R_Foot 0.000000 0.000000 0.000000 0.000000 0.000000 0.000000 10.000000 
planeAlignerRight 0.000000 0.000000 0.000000 0.000000 0.000000 0.000000 10.000000 
R_Toe1_01 0.000000 0.000000 0.000000 0.000000 0.000000 0.000000 10.000000 
R_Toe2_01 0.000000 0.000000 0.000000 0.000000 0.000000 0.000000 10.000000 
R_Toe3_01 0.000000 0.000000 0.000000 0.000000 0.000000 0.000000 10.000000 
planeLockWeightRight 0.000000 0.000000 0.000000 0.000000 0.000000 0.000000 10.000000 
R_Toe1_02 0.000000 0.000000 0.000000 0.000000 0.000000 0.000000 10.000000 
R_Toe1_03 0.000000 0.000000 0.000000 0.000000 0.000000 0.000000 10.000000 
R_Toe2_02 0.000000 0.000000 0.000000 0.000000 0.000000 0.000000 10.000000 
R_Toe2_03 0.000000 0.000000 0.000000 0.000000 0.000000 0.000000 10.000000 
R_Toe3_02 0.000000 0.000000 0.000000 0.000000 0.000000 0.000000 10.000000 
R_Toe3_03 0.000000 0.000000 0.000000 0.000000 0.000000 0.000000 10.000000 
Rear_Leg02 0.000000 0.000000 0.000000 0.000000 0.000000 0.000000 10.000000 
Rear_Leg03 0.000000 0.000000 0.000000 0.000000 0.000000 0.000000 10.000000 
Rear_Leg04 0.000000 0.000000 0.000000 0.000000 0.000000 0.000000 10.000000 
Rear_Foot 0.000000 0.000000 0.000000 0.000000 0.000000 0.000000 10.000000 
planeAlignerCenter 0.000000 0.000000 0.000000 0.000000 0.000000 0.000000 10.000000 
Rear_Toe1_01 0.000000 0.000000 0.000000 0.000000 0.000000 0.000000 10.000000 
Rear_Toe2_01 0.000000 0.000000 0.000000 0.000000 0.000000 0.000000 10.000000 
Rear_Toe3_01 0.000000 0.000000 0.000000 0.000000 0.000000 0.000000 10.000000 
planeLockWeightCenter 0.000000 0.000000 0.000000 0.000000 0.000000 0.000000 10.000000 
Rear_Toe1_02 0.000000 0.000000 0.000000 0.000000 0.000000 0.000000 10.000000 
Rear_Toe1_03 0.000000 0.000000 0.000000 0.000000 0.000000 0.000000 10.000000 
Rear_Toe2_02 0.000000 0.000000 0.000000 0.000000 0.000000 0.000000 10.000000 
Rear_Toe2_03 0.000000 0.000000 0.000000 0.000000 0.000000 0.000000 10.000000 
Rear_Toe3_02 0.000000 0.000000 0.000000 0.000000 0.000000 0.000000 10.000000 
Rear_Toe3_03 0.000000 0.000000 0.000000 0.000000 0.000000 0.000000 10.000000 
Back_Bone 0.000000 0.000000 0.000000 0.000000 0.000000 0.000000 10.000000 
Head 0.000000 0.000000 0.000000 0.000000 0.000000 0.000000 10.000000 
Motor_Bone 0.000000 0.000000 0.000000 0.000000 0.000000 0.000000 10.000000 
Ping_Mechanism 0.000000 0.000000 0.000000 0.000000 0.000000 0.000000 10.000000 
BN_LookIK 0.000000 0.000000 0.000000 0.000000 0.000000 0.000000 10.000000 
bottomMouth 0.000000 0.000000 0.000000 0.000000 0.000000 0.000000 10.000000 
L_Mouth01 0.000000 0.000000 0.000000 0.000000 0.000000 0.000000 10.000000 
L_mouthFront 0.000000 0.000000 0.000000 0.000000 0.000000 0.000000 10.000000 
mouthGun 0.000000 0.000000 0.000000 0.000000 0.000000 0.000000 10.000000 
R_Mouth01 0.000000 0.000000 0.000000 0.000000 0.000000 0.000000 10.000000 
R_mouthFront 0.000000 0.000000 0.000000 0.000000 0.000000 0.000000 10.000000 
TopMouth 0.000000 0.000000 0.000000 0.000000 0.000000 0.000000 10.000000 
weapon_bone 0.000000 0.000000 0.000000 0.000000 0.000000 0.000000 10.000000 
#Beginning of Data. Separated by tabs
#Fr	Tx	Ty	Tz	Rx	Ry	Rz	SF
[Pinger_Root]
14 0.000000 0.000000 0.000000 -0.000075 -0.000000 -0.000020 0.000000
15 0.000000 0.000000 0.000000 -0.000075 -0.000000 -0.000020 0.000000
16 0.000000 0.000000 0.000000 -0.000075 -0.000000 -0.000020 0.000000
[Pelvis]
14 -713.004639 527.749756 4295.303711 -162.215668 -82.104599 154.390076 4385.946777
15 -721.447876 522.478027 4296.726074 -150.454193 -80.903664 142.499420 4388.089355
16 -729.227966 517.670776 4313.983398 -148.482468 -80.549088 140.494049 4405.702148
[L_Hip]
14 5.766392 125.831482 872.656799 160.158691 -45.484913 122.312202 881.701050
15 5.766392 125.831482 872.656799 160.158691 -45.484898 122.312202 881.701050
16 5.766392 125.831482 872.656799 160.158676 -45.484894 122.312202 881.701050
[R_Hip]
14 5.765438 125.836372 -872.654907 38.087841 49.812687 125.703735 881.699829
15 5.765438 125.836372 -872.654907 38.087845 49.812691 125.703735 881.699829
16 5.765438 125.836372 -872.654907 38.087841 49.812687 125.703735 881.699829
[Rear_Leg01]
14 -192.298416 -925.602966 -0.001907 168.940948 6.483469 -162.761017 945.367432
15 -192.298416 -925.602966 -0.001907 168.805374 6.139096 -165.270538 945.367432
16 -192.298416 -925.602966 -0.001907 168.745163 6.014354 -166.009415 945.367432
[Spine1]
14 290.604584 5.007505 0.000477 26.453848 -9.538867 -1.898641 290.647736
15 290.604584 5.007505 0.000477 26.463648 -9.523599 -1.915000 290.647736
16 290.604584 5.007505 0.000477 26.473440 -9.508324 -1.931355 290.647736
[L_Leg01]
14 761.932007 -0.002384 -0.069261 17.281704 -21.391539 5.015585 761.932068
15 761.932007 -0.002384 -0.069261 15.806297 -21.638332 7.613725 761.932068
16 761.932007 -0.002384 -0.069261 15.549754 -21.674213 7.809116 761.932068
[L_Leg02]
14 1441.140503 -0.000954 -0.000715 4.038437 -0.187706 -142.038300 1441.140503
15 1441.140503 -0.000954 -0.000715 4.043177 -0.188024 -142.074905 1441.140503
16 1441.140503 -0.000954 -0.000715 3.981498 -0.186030 -141.530823 1441.140503
[L_Leg03]
14 1686.963989 -0.000715 -0.000954 -0.036519 0.016878 119.575027 1686.963989
15 1686.963989 -0.000715 -0.000954 -0.036518 0.016882 119.586464 1686.963989
16 1686.963989 -0.000715 -0.000954 -0.036516 0.016886 119.597908 1686.963989
[L_Foot]
14 3041.570068 -30.715107 11.297464 11.705849 12.275849 55.681999 3041.746094
15 3041.570068 -30.715107 11.297464 11.587236 12.252489 55.299812 3041.746094
16 3041.570068 -30.715107 11.297464 11.678656 12.296420 55.172871 3041.746094
[L_Toe1_01]
14 -188.216690 -224.732346 -21.137953 93.351273 -13.733027 -172.855972 293.899567
15 -188.216690 -224.732346 -21.137953 93.988434 -13.962581 -176.146683 293.899567
16 -188.216690 -224.732346 -21.137953 94.264114 -14.006946 -177.218750 293.899567
[L_Toe2_01]
14 200.746536 -219.926590 148.838394 -87.165451 -37.106354 -51.886414 332.896027
15 200.746536 -219.926590 148.838394 -87.353310 -38.056343 -50.862652 332.896027
16 200.746536 -219.926590 148.838394 -87.170906 -38.207916 -51.143906 332.896027
[L_Toe3_01]
14 188.832520 -219.859131 -191.078659 -96.440605 6.435032 -59.029720 347.140900
15 188.832520 -219.859131 -191.078659 -96.200531 6.037602 -57.248573 347.140900
16 188.832520 -219.859131 -191.078659 -96.196930 5.787377 -57.403294 347.140900
[planeAlignerLeft]
14 0.812531 -811.448792 -0.314951 0.000000 -90.000000 -90.001900 811.449280
15 0.812531 -811.448792 -0.314951 0.000000 -90.000000 -90.001900 811.449280
16 0.812531 -811.448792 -0.314951 0.000000 -90.000000 -90.001900 811.449280
[L_Toe1_02]
14 413.761139 0.000477 0.000000 0.001529 -10.294259 0.001529 413.761139
15 413.761139 0.000477 0.000000 0.001613 -3.347040 0.001613 413.761139
16 413.761139 0.000477 0.000000 0.001661 0.070897 0.001661 413.761139
[L_Toe1_03]
14 464.317322 0.000358 -0.000089 0.001378 10.396903 -0.003174 464.317322
15 464.317322 0.000358 -0.000089 0.001568 3.251411 -0.003242 464.317322
16 464.317322 0.000358 -0.000089 0.001673 -0.448396 -0.003292 464.317322
[L_Toe2_02]
14 342.235809 -0.000477 0.000238 0.001186 -73.484436 0.001186 342.235809
15 342.235809 -0.000477 0.000238 0.001185 -73.818069 0.001185 342.235809
16 342.235809 -0.000477 0.000238 0.001186 -73.683769 0.001186 342.235809
[L_Toe2_03]
14 420.210846 -0.000715 0.000000 -0.040891 88.317276 -0.037394 420.210846
15 420.210846 -0.000715 0.000000 -0.086613 89.222672 -0.083116 420.210846
16 420.210846 -0.000715 0.000000 -0.064257 88.945938 -0.060760 420.210846
[L_Toe3_02]
14 329.270111 0.000954 0.000000 0.004676 -84.272415 0.004676 329.270111
15 329.270111 0.000954 0.000000 0.004676 -84.365982 0.004676 329.270111
16 329.270111 0.000954 0.000000 0.004676 -84.459320 0.004676 329.270111
[L_Toe3_03]
14 439.137451 -0.001907 0.000954 179.992371 55.684746 179.999680 439.137451
15 439.137451 -0.001907 0.000954 179.992599 53.099106 179.999985 439.137451
16 439.137451 -0.001907 0.000954 179.992615 53.054886 179.999985 439.137451
[planeLockWeightLeft]
14 -0.000954 0.000238 -0.000305 -0.011826 -0.004376 0.005620 0.001029
15 -0.000954 0.000238 -0.000305 -0.011826 -0.004376 0.005620 0.001029
16 -0.000954 0.000238 -0.000305 -0.011826 -0.004376 0.005620 0.001029
[R_Leg01]
14 761.455627 -0.001907 -0.000358 120.001274 2.711942 41.001728 761.455688
15 761.455627 -0.001907 -0.000358 120.837341 1.034654 40.417988 761.455688
16 761.455627 -0.001907 -0.000358 121.061951 1.613863 41.116714 761.455688
[R_Leg02]
14 1441.140625 0.000000 -0.000238 0.048010 0.114195 -80.577599 1441.140625
15 1441.140625 0.000000 -0.000238 0.079330 0.100514 -79.653557 1441.140625
16 1441.140625 0.000000 -0.000238 0.179229 0.118913 -76.791557 1441.140625
[R_Leg03]
14 1686.963989 0.000954 0.001431 0.034244 -0.016403 119.946678 1686.963989
15 1686.963989 0.000954 0.001431 0.034288 -0.016310 119.637962 1686.963989
16 1686.963989 0.000954 0.001431 0.031331 -0.014014 118.630836 1686.963989
[R_Foot]
14 3041.560059 -30.531288 -11.204481 9.092644 -23.811522 34.759357 3041.734131
15 3041.560059 -30.531288 -11.204481 9.084064 -23.784382 34.334328 3041.734131
16 3041.560059 -30.531288 -11.204481 8.998290 -23.766832 33.797318 3041.734131
[planeAlignerRight]
14 -0.635147 -812.270569 -0.364304 0.000000 -89.960434 -90.005180 812.270874
15 -0.635147 -812.270569 -0.364304 0.000000 -89.960434 -90.005180 812.270874
16 -0.635147 -812.270569 -0.364304 0.000000 -89.960434 -90.005180 812.270874
[R_Toe1_01]
14 -188.383347 -224.864899 21.052242 76.900764 -2.420959 -169.616913 294.101532
15 -188.383347 -224.864899 21.052242 76.943352 -2.714515 -170.181152 294.101532
16 -188.383347 -224.864899 21.052242 76.988838 -3.007636 -170.745743 294.101532
[R_Toe2_01]
14 200.637817 -220.002121 -148.787384 -91.769882 29.612152 -61.112579 332.857574
15 200.637817 -220.002121 -148.787384 -91.474754 29.544230 -60.613270 332.857574
16 200.637817 -220.002121 -148.787384 -91.180511 29.474070 -60.114708 332.857574
[R_Toe3_01]
14 188.606735 -220.092957 191.126343 -72.375488 -9.392797 -76.485352 347.192566
15 188.606735 -220.092957 191.126343 -72.263809 -9.644424 -76.205368 347.192566
16 188.606735 -220.092957 191.126343 -72.153282 -9.896586 -75.925667 347.192566
[planeLockWeightRight]
14 -0.000477 0.000000 0.000000 -0.011823 -0.004379 -0.000027 0.000477
15 -0.000477 0.000000 0.000000 -0.011823 -0.004379 -0.000027 0.000477
16 -0.000477 0.000000 0.000000 -0.011823 -0.004379 -0.000027 0.000477
[R_Toe1_02]
14 413.762085 0.000477 -0.000119 0.000006 -25.434675 -0.000005 413.762085
15 413.762085 0.000477 -0.000119 0.000006 -25.434675 -0.000005 413.762085
16 413.762085 0.000477 -0.000119 0.000006 -25.434675 -0.000005 413.762085
[R_Toe1_03]
14 464.317810 0.000000 0.001088 0.006400 68.866219 0.006400 464.317810
15 464.317810 0.000000 0.001088 0.006620 69.576843 0.006620 464.317810
16 464.317810 0.000000 0.001088 0.006856 70.287453 0.006856 464.317810
[R_Toe2_02]
14 342.234741 -0.000954 0.000238 0.001201 -65.389259 0.001201 342.234741
15 342.234741 -0.000954 0.000238 0.001200 -65.863983 0.001200 342.234741
16 342.234741 -0.000954 0.000238 0.001199 -66.338676 0.001199 342.234741
[R_Toe2_03]
14 420.210846 0.000715 -0.000268 -0.005068 69.894783 -0.001517 420.210846
15 420.210846 0.000715 -0.000268 -0.005259 71.020912 -0.001713 420.210846
16 420.210846 0.000715 -0.000268 -0.005421 71.885994 -0.001881 420.210846
[R_Toe3_02]
14 329.270355 -0.000477 -0.000954 -0.004946 -68.850716 0.001405 329.270355
15 329.270355 -0.000477 -0.000954 -0.007615 -69.138779 0.005261 329.270355
16 329.270355 -0.000477 -0.000954 -0.010375 -69.426773 0.009207 329.270355
[R_Toe3_03]
14 439.137939 0.000238 0.001431 0.007159 71.130325 0.007159 439.137939
15 439.137939 0.000238 0.001431 0.007398 71.743721 0.007398 439.137939
16 439.137939 0.000238 0.001431 0.007653 72.357079 0.007653 439.137939
[Rear_Leg02]
14 1162.777710 -0.029802 0.005960 1.369518 -2.645255 -139.353119 1162.777710
15 1162.777710 -0.029802 0.005960 1.315676 -2.671115 -138.130905 1162.777710
16 1162.777710 -0.029802 0.005960 1.278208 -2.692401 -137.288177 1162.777710
[Rear_Leg03]
14 607.192505 -0.013351 -0.073195 0.010418 -0.005255 69.891670 607.192505
15 607.192505 -0.013351 -0.073195 0.010436 -0.005220 69.507973 607.192505
16 607.192505 -0.013351 -0.073195 0.010453 -0.005185 69.124283 607.192505
[Rear_Leg04]
14 995.874512 -0.020504 -0.011921 -0.040625 -0.017849 69.924980 995.874573
15 995.874512 -0.020504 -0.011921 -0.040487 -0.018160 69.046234 995.874573
16 995.874512 -0.020504 -0.011921 -0.040392 -0.018373 68.442131 995.874573
[Rear_Foot]
14 3096.176270 -0.067472 -0.041425 -17.209995 81.320290 172.383957 3096.176270
15 3096.176270 -0.067472 -0.041425 -17.099497 81.220650 172.208328 3096.176270
16 3096.176270 -0.067472 -0.041425 -16.988218 81.120972 172.033417 3096.176270
[planeAlignerCenter]
14 0.350077 0.966311 -838.790894 0.000009 0.000003 -179.999985 838.791565
15 0.350077 0.966311 -838.790894 0.000009 0.000003 -179.999985 838.791565
16 0.350077 0.966311 -838.790894 0.000009 0.000003 -179.999985 838.791565
[Rear_Toe1_01]
14 0.653352 83.966492 -371.173737 0.288091 41.914127 90.413170 380.553192
15 0.653352 83.966492 -371.173737 0.288093 41.914139 90.413170 380.553192
16 0.653352 83.966492 -371.173737 0.288091 41.914120 90.413162 380.553192
[Rear_Toe2_01]
14 178.200760 -294.826019 -362.060547 -7.196267 34.406261 -66.271294 499.765686
15 178.200760 -294.826019 -362.060547 -7.196268 34.406265 -66.271301 499.765686
16 178.200760 -294.826019 -362.060547 -7.196267 34.406261 -66.271294 499.765686
[Rear_Toe3_01]
14 -153.359680 -308.780914 -362.060852 3.289418 33.518005 -112.540970 499.952881
15 -153.359680 -308.780914 -362.060852 3.289417 33.518013 -112.540993 499.952881
16 -153.359680 -308.780914 -362.060852 3.289418 33.518005 -112.540970 499.952881
[planeLockWeightCenter]
14 -0.000062 0.000238 0.000000 -0.011814 -0.004373 -0.000015 0.000246
15 -0.000062 0.000238 0.000000 -0.011814 -0.004373 -0.000015 0.000246
16 -0.000062 0.000238 0.000000 -0.011814 -0.004373 -0.000015 0.000246
[Rear_Toe1_02]
14 379.707825 0.194073 0.000477 -0.000242 -31.676744 0.006934 379.707855
15 379.707825 0.194073 0.000477 -0.000242 -31.676744 0.006934 379.707855
16 379.707825 0.194073 0.000477 -0.000242 -31.676744 0.006934 379.707855
[Rear_Toe1_03]
14 500.129700 0.165701 0.000119 -0.000103 51.902481 0.007295 500.129761
15 500.129700 0.165701 0.000119 -0.000103 51.902485 0.007295 500.129761
16 500.129700 0.165701 0.000119 -0.000103 51.902481 0.007295 500.129761
[Rear_Toe2_02]
14 340.494507 0.000238 -0.000954 0.001192 -69.854523 0.001192 340.494507
15 340.494507 0.000238 -0.000954 0.001192 -69.854523 0.001192 340.494507
16 340.494507 0.000238 -0.000954 0.001192 -69.854523 0.001192 340.494507
[Rear_Toe2_03]
14 433.103577 0.000000 0.000238 0.006696 69.810326 0.006696 433.103546
15 433.103577 0.000000 0.000238 0.006696 69.810326 0.006696 433.103546
16 433.103577 0.000000 0.000238 0.006696 69.810326 0.006696 433.103546
[Rear_Toe3_02]
14 340.494141 -0.000358 -0.000477 0.008288 -67.274704 -0.009460 340.494171
15 340.494141 -0.000358 -0.000477 0.008288 -67.274704 -0.009460 340.494171
16 340.494141 -0.000358 -0.000477 0.008288 -67.274704 -0.009460 340.494171
[Rear_Toe3_03]
14 433.103577 0.001431 -0.000238 -0.000972 65.959007 -0.004547 433.103546
15 433.103577 0.001431 -0.000238 -0.000972 65.959007 -0.004547 433.103546
16 433.103577 0.001431 -0.000238 -0.000972 65.958984 -0.004547 433.103546
[Back_Bone]
14 1312.175781 -701.934692 0.000954 0.000023 -0.000007 -85.606667 1488.125488
15 1312.175781 -701.934692 0.000954 0.000023 -0.000007 -85.606667 1488.125488
16 1312.175781 -701.934692 0.000954 0.000023 -0.000007 -85.606667 1488.125488
[Head]
14 1406.159424 809.709290 0.001431 -0.696343 -9.911848 -5.932631 1622.625488
15 1406.159424 809.709290 0.001431 -0.654456 -7.688771 -3.518953 1622.625488
16 1406.159424 809.709290 0.001431 -0.554786 -5.154397 -0.176342 1622.625488
[Motor_Bone]
14 1158.364380 -417.834747 0.000477 -0.000105 0.000046 -105.985291 1231.419434
15 1158.364380 -417.834747 0.000477 -0.000105 0.000046 -105.985291 1231.419434
16 1158.364380 -417.834747 0.000477 -0.000105 0.000046 -105.985291 1231.419434
[Ping_Mechanism]
14 1215.237793 -433.297150 0.000954 0.000103 -0.000053 82.120995 1290.174072
15 1215.237793 -433.297150 0.000954 0.000103 -0.000053 82.120995 1290.174072
16 1215.237793 -433.297150 0.000954 0.000103 -0.000053 82.120995 1290.174072
[BN_LookIK]
14 193.241119 1380.371704 -0.002861 0.000000 89.965736 -31.038179 1393.832153
15 193.241119 1380.371704 -0.002861 0.000000 89.965736 -31.038179 1393.832153
16 193.241119 1380.371704 -0.002861 0.000000 89.965736 -31.038179 1393.832153
[bottomMouth]
14 -435.092926 615.759399 -0.000954 -0.000022 0.000016 73.527184 753.966492
15 -435.092926 615.759399 -0.000954 -0.000022 0.000016 73.527184 753.966492
16 -435.092926 615.759399 -0.000954 -0.000022 0.000016 73.527184 753.966492
[L_Mouth01]
14 554.440979 7.658243 838.222046 150.204178 23.759130 109.605339 1005.027161
15 554.440979 7.658243 838.222046 150.204178 23.759130 109.605339 1005.027161
16 554.440979 7.658243 838.222046 150.204178 23.759130 109.605339 1005.027161
[L_mouthFront]
14 551.629089 934.514771 339.150421 0.000081 2.804060 79.119301 1136.941284
15 551.629089 934.514771 339.150421 0.000081 2.804060 79.119301 1136.941284
16 551.629089 934.514771 339.150421 0.000081 2.804060 79.119301 1136.941284
[mouthGun]
14 55.332661 1627.420898 0.000000 0.000023 0.000009 -11.038128 1628.361328
15 55.332661 1627.420898 0.000000 0.000023 0.000009 -11.038128 1628.361328
16 55.332661 1627.420898 0.000000 0.000023 0.000009 -11.038128 1628.361328
[R_Mouth01]
14 554.442383 7.659197 -838.223938 29.795891 -23.759109 109.605331 1005.029541
15 554.442383 7.659197 -838.223938 29.795891 -23.759109 109.605331 1005.029541
16 554.442383 7.659197 -838.223938 29.795891 -23.759109 109.605331 1005.029541
[R_mouthFront]
14 551.629089 934.514282 -339.151367 0.000029 -2.803930 79.119133 1136.941162
15 551.629089 934.514282 -339.151367 0.000029 -2.803930 79.119133 1136.941162
16 551.629089 934.514282 -339.151367 0.000029 -2.803930 79.119133 1136.941162
[TopMouth]
14 461.269867 -56.106091 -0.008583 -0.000059 -0.000268 92.025169 464.669525
15 461.269867 -56.106091 -0.008583 -0.000059 -0.000268 92.025169 464.669525
16 461.269867 -56.106091 -0.008583 -0.000059 -0.000268 92.025169 464.669525
[weapon_bone]
14 -987.239868 1448.372803 0.001431 0.000000 89.965736 -31.038221 1752.833740
15 -987.239868 1448.372803 0.001431 0.000000 89.965736 -31.038221 1752.833740
16 -987.239868 1448.372803 0.001431 0.000000 89.965736 -31.038221 1752.833740
